<svg width="170" height="180" viewBox="0 0 170 180" fill="none" xmlns="http://www.w3.org/2000/svg">
    <path d="M89.9868 94.6842C90.1488 96.5099 86.756 97.5095 84.9974 94.6842C83.0965 92.1885 84.4941 86.3929 89.9868 84.7198C95.1601 82.7389 103.346 86.5413 104.955 94.6842C107.005 102.514 100.815 113.077 89.9868 114.615C79.4951 116.731 66.4941 108.16 65.0397 94.6842C62.8353 81.5369 73.8404 66.1755 89.9868 64.7895C105.82 62.5215 123.595 75.8869 124.913 94.6842C127.257 113.153 111.475 133.311 89.9868 134.544C68.8161 136.964 46.2513 118.8 45.0823 94.6842C42.5923 70.8825 63.1614 45.9542 89.9868 44.8597C116.474 42.3036 143.857 65.2353 144.87 94.6842C147.512 123.804 122.138 153.531 89.9868 154.474C58.159 157.182 25.999 129.454 25.1247 94.6842C22.3464 60.2438 52.4954 25.7239 89.9868 24.9299C127.143 22.0701 164.106 54.5969 164.828 94.6842C167.761 134.459 132.804 173.749 89.9868 174.404C47.5057 177.403 5.73722 140.105 5.16703 94.6842C2.09421 49.5923 41.8352 5.50298 89.9868 5" stroke="#7DE0E1" stroke-width="10" stroke-linecap="round"/>
</svg>
