<svg width="186" height="198" viewBox="0 0 186 198" fill="none" xmlns="http://www.w3.org/2000/svg">
    <path fill-rule="evenodd" clip-rule="evenodd" d="M75.7729 17.2222L70.6186 22.3765L115.371 22.3766L110.217 17.2219L75.7729 17.2222ZM97.7723 4.77753L88.2177 4.77745L92.9949 0.000169516L97.7723 4.77753ZM127.816 34.8209L58.1738 34.8213L53.0195 39.9756L132.97 39.9757L127.816 34.8209ZM145.415 52.42L40.5747 52.4204L35.4204 57.5748L150.57 57.5748L145.415 52.42ZM163.014 70.0191L22.9756 70.0195L17.8211 75.174L168.169 75.1739L163.014 70.0191ZM180.613 87.6182L5.37668 87.6184L0.221987 92.7731L185.768 92.773L180.613 87.6182ZM185.767 105.218L0.222294 105.217L5.37703 110.372L180.613 110.372L185.767 105.218ZM168.168 122.817L17.8214 122.817L22.976 127.971L163.014 127.971L168.168 122.817ZM150.569 140.416L35.4204 140.415L40.5751 145.57L145.415 145.57L150.569 140.416ZM132.97 158.015L53.0195 158.015L58.1742 163.169L127.816 163.169L132.97 158.015ZM115.371 175.614L70.6186 175.614L75.7733 180.768L110.216 180.769L115.371 175.614ZM97.772 193.213L88.2177 193.213L92.9949 197.99L97.772 193.213Z" fill="#7DE0E1"/>
</svg>
